<?xml version="1.0" encoding="UTF-8" standalone="no"?>
<!-- Created with Inkscape (http://www.inkscape.org/) -->

<svg
   xmlns:dc="http://purl.org/dc/elements/1.1/"
   xmlns:cc="http://creativecommons.org/ns#"
   xmlns:rdf="http://www.w3.org/1999/02/22-rdf-syntax-ns#"
   xmlns:svg="http://www.w3.org/2000/svg"
   xmlns="http://www.w3.org/2000/svg"
   xmlns:sodipodi="http://sodipodi.sourceforge.net/DTD/sodipodi-0.dtd"
   xmlns:inkscape="http://www.inkscape.org/namespaces/inkscape"
   width="10.033886mm"
   height="10.101996mm"
   viewBox="0 0 10.033886 10.101996"
   version="1.1"
   id="svg5889"
   inkscape:version="0.92.3 (2405546, 2018-03-11)"
   sodipodi:docname="durum.svg">
  <defs
     id="defs5883" />
  <sodipodi:namedview
     id="base"
     pagecolor="#ffffff"
     bordercolor="#666666"
     borderopacity="1.0"
     inkscape:pageopacity="0.0"
     inkscape:pageshadow="2"
     inkscape:zoom="3.06"
     inkscape:cx="91.995087"
     inkscape:cy="7.5433074"
     inkscape:document-units="mm"
     inkscape:current-layer="layer1"
     showgrid="false"
     fit-margin-top="1"
     fit-margin-bottom="1"
     fit-margin-right="1"
     fit-margin-left="1"
     inkscape:window-width="1853"
     inkscape:window-height="1025"
     inkscape:window-x="67"
     inkscape:window-y="27"
     inkscape:window-maximized="1" />
  <metadata
     id="metadata5886">
    <rdf:RDF>
      <cc:Work
         rdf:about="">
        <dc:format>image/svg+xml</dc:format>
        <dc:type
           rdf:resource="http://purl.org/dc/dcmitype/StillImage" />
        <dc:title></dc:title>
      </cc:Work>
    </rdf:RDF>
  </metadata>
  <g
     inkscape:label="Capa 1"
     inkscape:groupmode="layer"
     id="layer1"
     transform="translate(-81.492967,-113.35648)">
    <g
       transform="matrix(0.35277777,0,0,-0.35277777,22.150965,242.78124)"
       id="g6701">
      <g
         transform="translate(193.1191,355.2603)"
         id="g1658">
        <path
           inkscape:connector-curvature="0"
           id="path1660"
           style="fill:#ce6f3d;fill-opacity:1;fill-rule:nonzero;stroke:none"
           d="M 0,0 C -1.437,-1.656 -4.601,-1.264 -7.07,0.877 -9.54,3.019 -10.377,6.097 -8.941,7.753 -7.505,9.41 -4.338,9.017 -1.87,6.876 0.6,4.734 1.436,1.656 0,0" />
      </g>
      <g
         transform="translate(191.3472,353.2344)"
         id="g1662">
        <path
           inkscape:connector-curvature="0"
           id="path1664"
           style="fill:#8dc440;fill-opacity:1;fill-rule:nonzero;stroke:none"
           d="M 0,0 C -0.423,-0.477 -1.153,-0.578 -1.663,-0.897 -2.2,-1.232 -2.618,-1.834 -3.206,-1.99 c -0.606,-0.162 -1.267,0.158 -1.879,0.189 -0.62,0.031 -1.313,-0.216 -1.889,0.016 -0.564,0.226 -0.891,0.88 -1.368,1.302 -0.475,0.423 -1.161,0.672 -1.452,1.205 -0.298,0.546 -0.133,1.262 -0.237,1.874 -0.102,0.605 -0.497,1.224 -0.408,1.844 0.087,0.602 0.637,1.088 0.906,1.66 0.257,0.545 0.272,1.28 0.697,1.757 0.424,0.477 1.151,0.579 1.663,0.898 0.536,0.333 0.954,0.936 1.542,1.093 0.606,0.162 1.268,-0.158 1.88,-0.19 0.62,-0.03 1.312,0.217 1.889,-0.015 C -1.299,9.416 -0.971,8.763 -0.497,8.34 -0.021,7.917 0.666,7.669 0.957,7.136 1.255,6.591 1.09,5.873 1.195,5.262 1.297,4.657 1.691,4.038 1.603,3.417 1.515,2.815 0.965,2.329 0.697,1.757 0.44,1.212 0.423,0.478 0,0" />
      </g>
      <g
         transform="translate(191.8345,355.0835)"
         id="g1666">
        <path
           inkscape:connector-curvature="0"
           id="path1668"
           style="fill:#935223;fill-opacity:1;fill-rule:nonzero;stroke:none"
           d="M 0,0 C 0.078,0.088 0.13,0.189 0.158,0.296 0.387,0.709 0.369,1.215 0.119,1.612 0.533,2.106 0.482,2.843 -0.002,3.275 -0.251,3.496 -0.567,3.594 -0.876,3.574 -0.847,4.206 -1.093,4.844 -1.601,5.296 -1.619,5.312 -1.637,5.324 -1.654,5.339 -1.716,5.813 -1.941,6.267 -2.326,6.61 -3.016,7.222 -4,7.289 -4.752,6.838 -4.775,6.86 -4.797,6.883 -4.82,6.904 -5.605,7.604 -6.81,7.534 -7.511,6.746 -8.087,6.098 -8.138,5.167 -7.698,4.467 -7.837,4.376 -7.967,4.269 -8.082,4.14 -8.771,3.364 -8.703,2.175 -7.927,1.485 -7.406,1.022 -6.7,0.903 -6.084,1.107 -5.937,1.059 -5.787,1.03 -5.637,1.015 c -0.134,-0.492 0.008,-1.041 0.416,-1.404 0.572,-0.509 1.449,-0.457 1.958,0.115 0.037,0.043 0.072,0.089 0.104,0.135 0.377,0.039 0.742,0.195 1.036,0.466 0.07,-0.138 0.167,-0.265 0.289,-0.373 0.415,-0.37 1.001,-0.421 1.465,-0.176 C -0.231,-0.188 -0.102,-0.114 0,0" />
      </g>
      <g
         transform="translate(188.6431,355.6387)"
         id="g1670">
        <path
           inkscape:connector-curvature="0"
           id="path1672"
           style="fill:#ea1f26;fill-opacity:1;fill-rule:nonzero;stroke:none"
           d="M 0,0 C -0.867,-0.976 -2.347,-1.077 -3.305,-0.226 -4.262,0.626 -4.335,2.108 -3.467,3.083 -2.601,4.059 -1.12,4.16 -0.162,3.309 0.795,2.457 0.867,0.976 0,0" />
      </g>
      <g
         transform="translate(186.8999,358.2988)"
         id="g1674">
        <path
           inkscape:connector-curvature="0"
           id="path1676"
           style="fill:#ea1f26;fill-opacity:1;fill-rule:nonzero;stroke:none"
           d="M 0,0 C -0.868,-0.975 -2.348,-1.077 -3.305,-0.225 -4.263,0.627 -4.336,2.108 -3.469,3.084 -2.6,4.06 -1.121,4.16 -0.162,3.31 0.794,2.458 0.867,0.977 0,0" />
      </g>
      <g
         transform="translate(191.4907,354.2178)"
         id="g1678">
        <path
           inkscape:connector-curvature="0"
           id="path1680"
           style="fill:#ea1f26;fill-opacity:1;fill-rule:nonzero;stroke:none"
           d="m 0,0 c -0.868,-0.976 -2.348,-1.077 -3.306,-0.227 -0.958,0.853 -1.031,2.334 -0.162,3.31 0.867,0.976 2.345,1.077 3.304,0.226 C 0.795,2.458 0.867,0.976 0,0" />
      </g>
      <g
         transform="translate(180.458,341.2451)"
         id="g1682">
        <path
           inkscape:connector-curvature="0"
           id="path1684"
           style="fill:#e57940;fill-opacity:1;fill-rule:nonzero;stroke:none"
           d="m 0,0 c -0.59,-0.664 -3.149,0.645 -5.712,2.926 -2.567,2.28 -4.166,4.667 -3.575,5.331 0.591,0.665 5.601,2.113 8.165,-0.168 C 1.442,5.809 0.592,0.665 0,0" />
      </g>
      <g
         transform="translate(193.3315,356.0972)"
         id="g1686">
        <path
           inkscape:connector-curvature="0"
           id="path1688"
           style="fill:#f2985a;fill-opacity:1;fill-rule:nonzero;stroke:none"
           d="m 0,0 c 0,0 -8.141,4.75 -13.813,-2.092 -5.671,-6.843 0.23,-12.46 0.23,-12.46 0,0 0.419,-0.472 0.892,-0.052 0.472,0.421 12.652,13.959 12.652,13.959 0,0 0.583,0.364 0.039,0.645" />
      </g>
      <g
         transform="translate(185.0483,363.0957)"
         id="g1690">
        <path
           inkscape:connector-curvature="0"
           id="path1692"
           style="fill:#fcbe7b;fill-opacity:1;fill-rule:nonzero;stroke:none"
           d="m 0,0 c 0,0 3.2,-5.448 0.377,-9.12 -3.13,-4.07 -6.886,-7.781 -14.097,-5.225 0,0 -0.582,0.282 0.056,0.992 0.639,0.71 12.92,13.396 12.92,13.396 0,0 0.286,0.483 0.744,-0.043" />
      </g>
      <g
         transform="translate(184.1489,358.1484)"
         id="g1694">
        <path
           inkscape:connector-curvature="0"
           id="path1696"
           style="fill:#f39a59;fill-opacity:1;fill-rule:nonzero;stroke:none"
           d="M 0,0 C -0.311,-0.35 -0.849,-0.378 -1.202,-0.064 -1.555,0.249 -1.59,0.788 -1.28,1.137 -0.968,1.487 -0.429,1.516 -0.077,1.201 0.277,0.888 0.311,0.35 0,0" />
      </g>
      <g
         transform="translate(176.9678,350.1704)"
         id="g1698">
        <path
           inkscape:connector-curvature="0"
           id="path1700"
           style="fill:#f39a59;fill-opacity:1;fill-rule:nonzero;stroke:none"
           d="M 0,0 C -0.31,-0.35 -0.838,-0.388 -1.178,-0.086 -1.517,0.215 -1.54,0.744 -1.23,1.093 -0.919,1.443 -0.393,1.482 -0.052,1.18 0.288,0.877 0.312,0.35 0,0" />
      </g>
      <g
         transform="translate(184.4214,355.1201)"
         id="g1702">
        <path
           inkscape:connector-curvature="0"
           id="path1704"
           style="fill:#f39a59;fill-opacity:1;fill-rule:nonzero;stroke:none"
           d="m 0,0 c -0.272,-0.305 -0.772,-0.305 -1.116,0 -0.344,0.307 -0.403,0.803 -0.131,1.108 0.271,0.307 0.772,0.307 1.116,0 C 0.214,0.803 0.271,0.306 0,0" />
      </g>
      <g
         transform="translate(179.4556,355.1328)"
         id="g1706">
        <path
           inkscape:connector-curvature="0"
           id="path1708"
           style="fill:#f39a59;fill-opacity:1;fill-rule:nonzero;stroke:none"
           d="m 0,0 c -0.146,-0.164 -0.415,-0.164 -0.6,0 -0.183,0.165 -0.215,0.43 -0.07,0.595 0.147,0.165 0.415,0.165 0.6,0 C 0.114,0.43 0.146,0.165 0,0" />
      </g>
      <g
         transform="translate(178.5527,349.8945)"
         id="g1710">
        <path
           inkscape:connector-curvature="0"
           id="path1712"
           style="fill:#f39a59;fill-opacity:1;fill-rule:nonzero;stroke:none"
           d="m 0,0 c -0.146,-0.164 -0.414,-0.164 -0.599,0 -0.185,0.165 -0.217,0.432 -0.071,0.596 0.147,0.164 0.415,0.164 0.6,0 C 0.115,0.432 0.146,0.164 0,0" />
      </g>
      <g
         transform="translate(178.3413,355.7729)"
         id="g1714">
        <path
           inkscape:connector-curvature="0"
           id="path1716"
           style="fill:#f7d7b6;fill-opacity:1;fill-rule:nonzero;stroke:none"
           d="m 0,0 c -2.572,-2.691 -4.737,-4.797 -4.836,-4.702 -0.097,0.093 1.907,2.353 4.479,5.044 C 2.215,3.033 4.38,5.139 4.479,5.044 4.577,4.95 2.572,2.691 0,0" />
      </g>
    </g>
  </g>
</svg>
