<?xml version="1.0" encoding="iso-8859-1"?>
<!-- Generator: Adobe Illustrator 19.1.0, SVG Export Plug-In . SVG Version: 6.00 Build 0)  -->
<svg version="1.1" id="Capa_1" xmlns="http://www.w3.org/2000/svg" xmlns:xlink="http://www.w3.org/1999/xlink" x="0px"
	y="0px" viewBox="0 0 218.332 218.332" style="enable-background:new 0 0 218.332 218.332;" xml:space="preserve">
	<g>
		<g id="group-62svg">
			<path id="path-1_127_" style="fill:#FF3A2F;" d="M137.178,67.38v-9.533c0-4.256-3.485-7.704-7.779-7.704h-8.974l-4.836-38.485
			h-6.422h-6.423l-4.837,38.485h-8.972c-4.295,0-7.779,3.448-7.779,7.704v9.533c-7.049,1.728-12.283,8.019-12.283,15.536v107.739
			c0,8.846,7.241,16.019,16.171,16.019h48.244c1.736,0,3.404-0.277,4.972-0.778c6.497-2.081,11.2-8.114,11.2-15.241V82.916
			C149.46,75.399,144.227,69.109,137.178,67.38z" />
			<path id="path-2_127_" style="opacity:0.25;fill:#020403;enable-background:new    ;" d="M137.178,67.379v-9.532
			c0-4.257-3.485-7.704-7.779-7.704h-8.974l-4.836-38.485h-6.422h-6.423l-0.736,5.859l4.1,32.626h8.974
			c4.294,0,7.779,3.447,7.779,7.704v9.532c7.049,1.73,12.282,8.019,12.282,15.537v107.738c0,7.127-4.702,13.161-11.201,15.242
			c-1.566,0.501-3.234,0.778-4.97,0.778h14.316c1.736,0,3.404-0.277,4.972-0.778c6.497-2.081,11.2-8.115,11.2-15.242V82.916
			C149.46,75.398,144.227,69.109,137.178,67.379z" />
		</g>
	</g>
	<g>
	</g>
	<g>
	</g>
	<g>
	</g>
	<g>
	</g>
	<g>
	</g>
	<g>
	</g>
	<g>
	</g>
	<g>
	</g>
	<g>
	</g>
	<g>
	</g>
	<g>
	</g>
	<g>
	</g>
	<g>
	</g>
	<g>
	</g>
	<g>
	</g>
</svg>