<?xml version="1.0" encoding="UTF-8" standalone="no"?>
<svg width="64pt" height="64pt" viewBox="0 0 22.577778 22.577778" version="1.1" id="svg831"
   inkscape:version="1.1.2 (1:1.1+202202050950+0a00cf5339)" sodipodi:docname="30 - No Fast Food.svg"
   inkscape:export-filename="/media/taufikramadhan/Data/Tr Design Studio/Project Design/TR Creative Design/Icon Design/Project Hiring/Icon Icons/018 - Gym And Fitness/5 - Send/3 - Flat/30 - No Fast Food.png"
   inkscape:export-xdpi="576" inkscape:export-ydpi="576" xmlns:inkscape="http://www.inkscape.org/namespaces/inkscape"
   xmlns:sodipodi="http://sodipodi.sourceforge.net/DTD/sodipodi-0.dtd" xmlns="http://www.w3.org/2000/svg"
   xmlns:svg="http://www.w3.org/2000/svg" xmlns:rdf="http://www.w3.org/1999/02/22-rdf-syntax-ns#"
   xmlns:cc="http://creativecommons.org/ns#" xmlns:dc="http://purl.org/dc/elements/1.1/">
   <defs id="defs825">
      <pattern id="EMFhbasepattern" patternUnits="userSpaceOnUse" width="6" height="6" x="0" y="0" />
      <pattern id="EMFhbasepattern-9" patternUnits="userSpaceOnUse" width="6" height="6" x="0" y="0" />
      <pattern id="EMFhbasepattern-0" patternUnits="userSpaceOnUse" width="6" height="6" x="0" y="0" />
      <pattern id="EMFhbasepattern-7" patternUnits="userSpaceOnUse" width="6" height="6" x="0" y="0" />
      <pattern id="EMFhbasepattern-2" patternUnits="userSpaceOnUse" width="6" height="6" x="0" y="0" />
      <pattern id="EMFhbasepattern-98" patternUnits="userSpaceOnUse" width="6" height="6" x="0" y="0" />
      <pattern id="EMFhbasepattern-6" patternUnits="userSpaceOnUse" width="6" height="6" x="0" y="0" />
      <pattern id="EMFhbasepattern-01" patternUnits="userSpaceOnUse" width="6" height="6" x="0" y="0" />
      <pattern id="EMFhbasepattern-07" patternUnits="userSpaceOnUse" width="6" height="6" x="0" y="0" />
      <pattern id="EMFhbasepattern-8" patternUnits="userSpaceOnUse" width="6" height="6" x="0" y="0" />
      <pattern id="EMFhbasepattern-4" patternUnits="userSpaceOnUse" width="6" height="6" x="0" y="0" />
      <pattern id="EMFhbasepattern-40" patternUnits="userSpaceOnUse" width="6" height="6" x="0" y="0" />
      <pattern id="EMFhbasepattern-08" patternUnits="userSpaceOnUse" width="6" height="6" x="0" y="0" />
      <pattern id="EMFhbasepattern-04" patternUnits="userSpaceOnUse" width="6" height="6" x="0" y="0" />
      <pattern id="EMFhbasepattern-014" patternUnits="userSpaceOnUse" width="6" height="6" x="0" y="0" />
      <pattern id="EMFhbasepattern-27" patternUnits="userSpaceOnUse" width="6" height="6" x="0" y="0" />
      <pattern id="EMFhbasepattern-09" patternUnits="userSpaceOnUse" width="6" height="6" x="0" y="0" />
      <pattern id="EMFhbasepattern-5" patternUnits="userSpaceOnUse" width="6" height="6" x="0" y="0" />
      <pattern id="EMFhbasepattern-018" patternUnits="userSpaceOnUse" width="6" height="6" x="0" y="0" />
   </defs>
   <sodipodi:namedview inkscape:lockguides="true" id="base" pagecolor="#ffffff" bordercolor="#666666"
      borderopacity="1.0" inkscape:pageopacity="0.0" inkscape:pageshadow="2" inkscape:zoom="4.4249417"
      inkscape:cx="42.599431" inkscape:cy="53.786019" inkscape:document-units="pt" inkscape:current-layer="layer1"
      showgrid="false" units="pt" inkscape:window-width="1366" inkscape:window-height="705" inkscape:window-x="0"
      inkscape:window-y="31" inkscape:window-maximized="1" inkscape:pagecheckerboard="true"
      inkscape:showpageshadow="false" inkscape:object-paths="true" inkscape:snap-intersection-paths="true"
      inkscape:snap-smooth-nodes="true" inkscape:snap-midpoints="true" showguides="false" inkscape:snap-bbox="true"
      inkscape:bbox-nodes="true" inkscape:snap-nodes="false" inkscape:snap-global="true" inkscape:document-rotation="0">
      <inkscape:grid type="xygrid" id="grid1378" />
      <sodipodi:guide position="0.97013831,21.607643" orientation="78.000048,0" id="guide1380" inkscape:locked="true" />
      <sodipodi:guide position="0.97013831,0.97013129" orientation="0,78.000005" id="guide1382"
         inkscape:locked="true" />
      <sodipodi:guide position="21.607639,0.97013129" orientation="-78.000048,0" id="guide1384"
         inkscape:locked="true" />
      <sodipodi:guide position="21.607639,21.607643" orientation="0,-78.000005" id="guide1386" inkscape:locked="true" />
   </sodipodi:namedview>
   <metadata id="metadata828">
      <rdf:RDF>
         <cc:Work rdf:about="">
            <dc:format>image/svg+xml</dc:format>
            <dc:type rdf:resource="http://purl.org/dc/dcmitype/StillImage" />
         </cc:Work>
      </rdf:RDF>
   </metadata>
   <g inkscape:label="Icon" inkscape:groupmode="layer" id="layer1" transform="translate(0,-274.42223)">
      <g id="g121441" style="display:inline;stroke-width:0.798112"
         transform="matrix(1.2529575,0,0,1.2529575,-113.97611,-190.46462)">
         <path
            style="color:#000000;fill:#4895ef;stroke-width:0.798112;stroke-linecap:round;stroke-linejoin:round;stroke-miterlimit:10;-inkscape-stroke:none"
            d="m 95.208984,377.53125 c -0.187447,0 -0.360375,0.0734 -0.490234,0.19727 -0.129859,0.12387 -0.217609,0.31582 -0.189453,0.52148 l 0.113281,0.83008 v 8.41406 a 0.26460996,0.26460996 0 0 0 0.263672,0.26367 h 5.16602 a 0.26460996,0.26460996 0 0 0 0.26562,-0.26367 v -6.97852 l 0.28125,-2.26953 c 0.0508,-0.40833 -0.30508,-0.71484 -0.679687,-0.71484 z"
            id="path1700573" />
         <path id="path31556"
            style="color:#000000;fill:#2c5eb5;fill-opacity:1;stroke-width:3.01649;stroke-linecap:round;stroke-linejoin:round;stroke-miterlimit:10;-inkscape-stroke:none"
            d="m 359.8457,368.36914 c -0.70846,0 -1.36271,0.27792 -1.85351,0.74609 -0.49081,0.46817 -0.82322,1.19341 -0.7168,1.97071 l 0.17578,1.28515 h 21.85156 c 0.27287,0 0.57219,-0.0452 0.84961,-0.16797 l 0.14063,-1.13085 c 0.192,-1.5433 -1.15252,-2.70313 -2.56836,-2.70313 z"
            transform="matrix(0.26458334,0,0,0.26458334,0,280.06666)" />
         <g id="g60277" transform="translate(5.2916667)" style="stroke-width:0.798112">
            <path
               style="color:#000000;fill:#fca311;stroke-width:0.798112;stroke-linecap:round;stroke-linejoin:round;stroke-miterlimit:10;-inkscape-stroke:none"
               d="m 90.608724,379.99414 a 0.26460996,0.26460996 0 0 0 -0.257813,0.20898 l -0.423828,2.03711 a 0.26460996,0.26460996 0 0 0 0.259766,0.31836 h 1.451171 a 0.26460996,0.26460996 0 0 0 0.265625,-0.26367 v -0.36719 -1.66992 a 0.26460996,0.26460996 0 0 0 -0.265625,-0.26367 z"
               id="path1700645" />
            <path id="path58031"
               style="color:#000000;fill:#ec7523;fill-opacity:1;stroke-width:0.798112;stroke-linecap:round;stroke-linejoin:round;stroke-miterlimit:10;-inkscape-stroke:none"
               d="m 90.60894,379.9939 a 0.26460996,0.26460996 0 0 0 -0.257862,0.20929 l -0.06667,0.31987 h 0.824241 a 0.26460996,0.26460996 0 0 1 0.265615,0.26407 v 1.66967 0.1018 h 0.263551 a 0.26460996,0.26460996 0 0 0 0.265616,-0.26355 v -0.36742 -1.66967 a 0.26460996,0.26460996 0 0 0 -0.265616,-0.26406 z" />
            <path
               style="color:#000000;fill:#fca311;stroke-width:0.798112;stroke-linecap:round;stroke-linejoin:round;stroke-miterlimit:10;-inkscape-stroke:none"
               d="M 89.671224,378.79883 A 0.26460996,0.26460996 0 0 0 89.35677,379 l -0.201171,0.91602 -0.705079,2.63281 a 0.26460996,0.26460996 0 0 0 0.1875,0.32422 l 1.294922,0.3457 a 0.26460996,0.26460996 0 0 0 0.324219,-0.18555 l 0.183594,-0.66797 a 0.26460996,0.26460996 0 0 0 0.0039,-0.0176 l 0.619141,-2.97266 a 0.26460996,0.26460996 0 0 0 -0.203125,-0.3125 z"
               id="path1700585" />
            <path
               style="color:#000000;fill:#fca311;stroke-width:0.798112;stroke-linecap:round;stroke-linejoin:round;stroke-miterlimit:10;-inkscape-stroke:none"
               d="m 88.30013,379.71484 a 0.26460996,0.26460996 0 0 0 -0.265625,0.26563 v 2.5 a 0.26460996,0.26460996 0 0 0 0.265625,0.26562 h 1.111328 a 0.26460996,0.26460996 0 0 0 0.265625,-0.26562 v -2.5 a 0.26460996,0.26460996 0 0 0 -0.265625,-0.26563 z"
               id="path1700639" />
            <path
               style="color:#000000;fill:#fca311;stroke-width:0.798112;stroke-linecap:round;stroke-linejoin:round;stroke-miterlimit:10;-inkscape-stroke:none"
               d="m 87.186849,378.88086 c -0.14617,-5.6e-4 -0.265107,0.1175 -0.265625,0.26367 v 3.56028 c -1.47e-4,0.177 0.170153,0.30424 0.339843,0.25391 l 1.113282,-0.33008 c 0.112433,-0.0333 0.189536,-0.13663 0.189453,-0.2539 v -3.23021 c -5.16e-4,-0.14541 -0.118264,-0.26316 -0.263672,-0.26367 z"
               id="path1700657" sodipodi:nodetypes="ccccccccc" />
            <path id="path52274"
               style="color:#000000;fill:#ec7523;fill-opacity:1;stroke-width:3.01649;stroke-linecap:round;stroke-linejoin:round;stroke-miterlimit:10;-inkscape-stroke:none"
               d="m 329.52539,373.4707 c -0.55245,-0.002 -1.00195,0.44364 -1.00391,0.9961 v 1.0039 h 3.21094 c 0.54958,0.002 0.99415,0.44652 0.9961,0.9961 v 11.55078 l 1.28515,-0.38086 c 0.42495,-0.12586 0.71516,-0.51771 0.71485,-0.96094 V 374.4668 c -0.002,-0.54958 -0.44652,-0.99417 -0.9961,-0.9961 z"
               transform="matrix(0.26458334,0,0,0.26458334,0,280.06666)" />
            <path
               style="color:#000000;fill:#fca311;stroke-width:0.798112;stroke-linecap:round;stroke-linejoin:round;stroke-miterlimit:10;-inkscape-stroke:none"
               d="m 88.223958,380.00391 -1.392578,0.41406 a 0.26460996,0.26460996 0 0 0 -0.181641,0.31445 l 0.296875,1.25586 a 0.26460996,0.26460996 0 0 0 0.111328,0.16016 l 1.095703,0.71679 a 0.26460996,0.26460996 0 0 0 0.410157,-0.22265 v -2.38477 a 0.26460996,0.26460996 0 0 0 -0.339844,-0.2539 z"
               id="path48971" />
            <path id="path1700651"
               style="color:#000000;fill:#ec7523;fill-opacity:1;stroke-width:3.01649;stroke-linecap:round;stroke-linejoin:round;stroke-miterlimit:10;-inkscape-stroke:none"
               d="m 333.7168,377.67383 a 1.0001006,1.0001006 0 0 0 -0.27149,0.041 l -5.26367,1.56641 a 1.0001006,1.0001006 0 0 0 -0.6875,1.1875 l 0.53516,2.26172 3.41601,-1.01563 a 1.0001006,1.0001006 0 0 1 1.28321,0.96094 v 5.5586 l 0.45117,0.29492 a 1.0001006,1.0001006 0 0 0 1.54883,-0.83985 v -9.01367 a 1.0001006,1.0001006 0 0 0 -1.01172,-1.00195 z"
               transform="matrix(0.26458334,0,0,0.26458334,0,280.06666)" />
            <path id="path54234"
               style="color:#000000;fill:#ec7523;fill-opacity:1;stroke-width:0.798112;stroke-linecap:round;stroke-linejoin:round;stroke-miterlimit:10;-inkscape-stroke:none"
               d="m 88.300038,379.71484 a 0.26460996,0.26460996 0 0 0 -0.265615,0.26562 v 0.26355 h 0.848008 a 0.26460996,0.26460996 0 0 1 0.265618,0.26562 v 2.23655 h 0.263549 a 0.26460996,0.26460996 0 0 0 0.265618,-0.26561 v -2.50011 a 0.26460996,0.26460996 0 0 0 -0.265618,-0.26562 z" />
            <path id="path56191"
               style="color:#000000;fill:#ec7523;fill-opacity:1;stroke-width:0.798112;stroke-linecap:round;stroke-linejoin:round;stroke-miterlimit:10;-inkscape-stroke:none"
               d="m 89.619854,378.79294 a 0.26460996,0.26460996 0 0 0 -0.263033,0.20722 l -0.07855,0.35812 1.053167,0.23357 a 0.26460996,0.26460996 0 0 1 0.203086,0.31213 l -0.619083,2.97294 a 0.26460996,0.26460996 0 0 1 -0.0036,0.0176 l -0.08165,0.29663 0.102838,0.0274 a 0.26460996,0.26460996 0 0 0 0.324012,-0.18551 l 0.183967,-0.66766 a 0.26460996,0.26460996 0 0 0 0.0036,-0.0176 l 0.619082,-2.97295 a 0.26460996,0.26460996 0 0 0 -0.203086,-0.31212 l -1.189593,-0.26407 a 0.26460996,0.26460996 0 0 0 -0.05116,-0.006 z" />
         </g>
         <path
            style="color:#000000;fill:#dc1c4b;stroke-width:0.798112;stroke-linecap:round;stroke-linejoin:round;stroke-miterlimit:10;-inkscape-stroke:none"
            d="m 92.255859,381.66211 c -0.301191,0 -0.541857,0.26815 -0.513672,0.56641 0.14911,1.57829 0.29395,3.15894 0.472657,4.73828 0.04474,0.44739 0.425367,0.79101 0.875,0.79101 h 3.0625 c 0.449632,0 0.83026,-0.34361 0.875,-0.79101 0.167475,-1.57683 0.334103,-3.1533 0.472656,-4.73633 0.02998,-0.29981 -0.212374,-0.56836 -0.513672,-0.56836 h -0.625 a 0.26460996,0.26460996 0 0 0 -0.117187,0.0273 c 0,0 -0.274107,0.13494 -0.621094,0.26953 -0.346987,0.13459 -0.778218,0.25977 -1.001953,0.25977 -0.223736,0 -0.654966,-0.12518 -1.001953,-0.25977 -0.346988,-0.13459 -0.621094,-0.26953 -0.621094,-0.26953 a 0.26460996,0.26460996 0 0 0 -0.117188,-0.0273 z"
            id="path1700579" />
         <path id="path60279"
            style="color:#000000;fill:#b01d47;fill-opacity:1;stroke-width:0.798112;stroke-linecap:round;stroke-linejoin:round;stroke-miterlimit:10;-inkscape-stroke:none"
            d="m 92.255869,381.66201 c -0.288581,0 -0.521518,0.24621 -0.515729,0.52917 h 0.611331 a 0.26460996,0.26460996 0 0 1 0.117305,0.0274 c 0,0 0.274164,0.13516 0.621152,0.26975 0.346985,0.13459 0.778269,0.25941 1.002006,0.25941 0.223735,0 0.655019,-0.12482 1.002006,-0.25941 0.346986,-0.13459 0.62115,-0.26975 0.62115,-0.26975 a 0.26460996,0.26460996 0 0 1 0.117305,-0.0274 h 0.624769 c 0.301297,0 0.543644,0.26863 0.513665,0.56844 -0.138555,1.58303 -0.305367,3.15931 -0.47284,4.73614 -0.0073,0.0728 -0.02363,0.14302 -0.04754,0.20929 0.309917,-0.11242 0.542332,-0.39469 0.57671,-0.73845 0.167473,-1.57683 0.334285,-3.15312 0.472839,-4.73615 0.02998,-0.29981 -0.212368,-0.56844 -0.513665,-0.56844 h -0.624768 a 0.26460996,0.26460996 0 0 0 -0.117306,0.0274 c 0,0 -0.274164,0.13516 -0.621149,0.26975 -0.346988,0.13459 -0.778272,0.25942 -1.002006,0.25942 -0.223737,0 -0.655021,-0.12483 -1.002006,-0.25942 -0.346988,-0.13459 -0.621152,-0.26975 -0.621152,-0.26975 a 0.26460996,0.26460996 0 0 0 -0.117306,-0.0274 z" />
         <path id="path1700591"
            style="color:#000000;fill:#ececec;stroke-width:3.01649;stroke-linecap:round;stroke-linejoin:round;stroke-miterlimit:10;-inkscape-stroke:none"
            d="m 357.62305,390.29492 c -0.89896,5.3e-4 -1.64509,0.52673 -2.35547,1.05469 h -8.03125 c 0.3626,3.82126 0.73653,7.64323 1.1582,11.46484 h 18.45117 c 0.40505,-3.81915 0.8062,-7.63846 1.17578,-11.46484 h -8.04296 c -0.70952,-0.52588 -1.45817,-1.05416 -2.35547,-1.05469 z"
            transform="matrix(0.26458334,0,0,0.26458334,0,280.06666)" />
         <path
            style="color:#000000;fill:#ffa185;stroke-width:0.798112;stroke-linecap:round;stroke-linejoin:round;stroke-miterlimit:10;-inkscape-stroke:none"
            d="m 102.2832,379.85352 c -1.5666,0 -2.493306,0.37737 -3.027341,0.85351 -0.534034,0.47615 -0.652343,1.02623 -0.652343,1.32422 v 0.81836 a 0.26460945,0.26460945 0 0 0 0.265625,0.26562 h 6.828129 a 0.26460945,0.26460945 0 0 0 0.26367,-0.26562 v -0.81836 c 0,-0.29799 -0.11831,-0.84807 -0.65235,-1.32422 -0.53403,-0.47614 -1.45879,-0.85351 -3.02539,-0.85351 z"
            id="path1700597" />
         <path id="path71625"
            style="color:#000000;fill:#ff7247;fill-opacity:1;stroke-width:0.798112;stroke-linecap:round;stroke-linejoin:round;stroke-miterlimit:10;-inkscape-stroke:none"
            d="m 102.28316,379.85334 c -1.5666,0 -2.493167,0.37755 -3.027202,0.85369 -0.135181,0.12053 -0.243483,0.24581 -0.33021,0.37052 0.555347,-0.39856 1.440572,-0.69505 2.828252,-0.69505 1.5666,0 2.49162,0.37756 3.02565,0.8537 0.53404,0.47615 0.65216,1.02647 0.65216,1.32447 v 0.55448 h 0.26562 a 0.26460945,0.26460945 0 0 0 0.26355,-0.26561 v -0.81804 c 0,-0.29799 -0.11812,-0.84832 -0.65216,-1.32447 -0.53403,-0.47614 -1.45905,-0.85369 -3.02566,-0.85369 z" />
         <path
            style="color:#000000;fill:#ffa185;stroke-width:0.798112;stroke-linecap:round;stroke-linejoin:round;stroke-miterlimit:10;-inkscape-stroke:none"
            d="m 98.869141,385.00781 a 0.26460945,0.26460945 0 0 0 -0.265625,0.26367 v 0.85547 c 0,0.29799 0.151748,0.75491 0.691406,1.08008 0.539657,0.32517 1.437488,0.55078 2.988278,0.55078 1.5508,0 2.44667,-0.22561 2.98633,-0.55078 0.53966,-0.32517 0.69141,-0.78209 0.69141,-1.08008 v -0.85547 a 0.26460945,0.26460945 0 0 0 -0.26367,-0.26367 z"
            id="path1700603" />
         <path id="path96142"
            style="fill:#ff7247;fill-opacity:1;stroke-width:3.01649;stroke-linecap:round;stroke-linejoin:round;stroke-miterlimit:10"
            d="m 396.40039,400.48051 c 1.52917,-0.19281 2.94568,-0.36918 4.08203,-0.71875 V 397.625 c -0.002,-0.54921 -0.44688,-0.99389 -0.99609,-0.99609 h -25.8086 c -0.55226,-0.002 -1.00169,0.44383 -1.0039,0.99609 v 2.17188 c 0.13938,0.0504 0.2831,0.0999 0.42969,0.14648 2.45794,0.78119 6.34677,1.23242 13.47851,1.23242 0.66561,0 1.23877,-0.0121 1.83008,-0.0234 z"
            transform="matrix(0.26458334,0,0,0.26458334,0,280.06666)" sodipodi:nodetypes="ccccccccscc" />
         <path
            style="color:#000000;fill:#9a605a;stroke-width:0.798112;stroke-linecap:round;stroke-linejoin:round;stroke-miterlimit:10;-inkscape-stroke:none"
            d="m 98.869141,383.67773 c -0.444652,0 -0.8125,0.36591 -0.8125,0.81055 v 0.27344 c 0,0.11116 0.03715,0.2889 0.164062,0.43164 0.126911,0.14273 0.31771,0.25167 0.607422,0.34375 0.579424,0.18416 1.584325,0.30859 3.455075,0.30859 0.25437,0 0.47529,-0.003 0.69922,-0.008 0.008,0.44671 0.35587,0.82813 0.80274,0.82813 0.45169,0 0.81054,-0.38488 0.81054,-0.8379 v -0.10937 c 0.68082,-0.0784 1.20566,-0.17365 1.47852,-0.32031 0.15878,-0.0854 0.27483,-0.18841 0.3457,-0.30664 0.0709,-0.11824 0.0879,-0.2441 0.0879,-0.33008 v -0.27344 c 0,-0.44465 -0.3659,-0.81055 -0.81054,-0.81055 h -3.55079 z"
            id="path1700609" />
         <path id="path92467"
            style="fill:#66342d;fill-opacity:1;stroke-width:3.01649;stroke-linecap:round;stroke-linejoin:round;stroke-miterlimit:10"
            d="m 386.06641,391.59961 -12.38868,0.002 c -1.09028,0 -2.05598,0.58146 -2.60156,1.44922 0.80148,1.15 2.13247,1.9082 3.62891,1.9082 h 2.31054 l 3.49805,2.62891 c 0.81181,0.61134 2.02999,0.61134 2.8418,0 l 3.5,-2.62891 h 11.59765 c 1.49771,0 2.82961,-0.75851 3.63086,-1.91015 -0.54351,-0.86718 -1.50784,-1.44922 -2.59765,-1.44922 z"
            transform="matrix(0.26458334,0,0,0.26458334,0,280.06666)" />
         <path
            style="color:#000000;fill:#fca311;stroke-width:0.798112;stroke-linecap:round;stroke-linejoin:round;stroke-miterlimit:10;-inkscape-stroke:none"
            d="m 99.960937,383.67773 a 0.26461097,0.26461097 0 0 0 -0.158203,0.47657 l 1.091796,0.82031 a 0.26461097,0.26461097 0 0 0 0.31836,0 l 1.0918,-0.82031 a 0.26461097,0.26461097 0 0 0 -0.15821,-0.47657 z"
            id="path1700615" />
         <path
            style="color:#000000;fill:#50b86b;stroke-width:0.798112;stroke-linecap:round;stroke-linejoin:round;stroke-miterlimit:10;-inkscape-stroke:none"
            d="m 99.140625,382.58594 c -0.444699,0 -0.810562,0.36583 -0.810547,0.81054 0,0.4447 0.365854,0.81055 0.810547,0.81055 h 6.283205 c 0.4447,0 0.81055,-0.36585 0.81055,-0.81055 0,-0.4447 -0.36587,-0.81054 -0.81055,-0.81054 z"
            id="path1700621" />
         <path
            style="color:#000000;fill:#e07a5f;stroke:none;stroke-width:0.798112;stroke-linecap:round;stroke-linejoin:round;stroke-miterlimit:10;-inkscape-stroke:none"
            d="m 103.64907,381.21908 a 0.26458276,0.26458276 0 0 0 -0.18752,0.0787 l -0.27422,0.2722 a 0.26458276,0.26458276 0 0 0 0,0.37504 0.26458276,0.26458276 0 0 0 0.37504,0 l 0.2722,-0.27422 a 0.26458276,0.26458276 0 0 0 0,-0.37302 0.26458276,0.26458276 0 0 0 -0.1855,-0.0787 z"
            id="path23143" />
         <path
            style="color:#000000;fill:#e07a5f;stroke:none;stroke-width:0.798112;stroke-linecap:round;stroke-linejoin:round;stroke-miterlimit:10;-inkscape-stroke:none"
            d="m 102.4191,380.80976 a 0.26458276,0.26458276 0 0 0 -0.18752,0.0787 l -0.2722,0.2722 a 0.26458276,0.26458276 0 0 0 0,0.37504 0.26458276,0.26458276 0 0 0 0.37302,0 l 0.27422,-0.27423 a 0.26458276,0.26458276 0 0 0 0,-0.37301 0.26458276,0.26458276 0 0 0 -0.18752,-0.0787 z"
            id="path23225" />
         <path
            style="color:#000000;fill:#e07a5f;stroke:none;stroke-width:0.798112;stroke-linecap:round;stroke-linejoin:round;stroke-miterlimit:10;-inkscape-stroke:none"
            d="m 101.18914,381.21908 a 0.26458276,0.26458276 0 0 0 -0.1855,0.0787 l -0.27422,0.2722 a 0.26458276,0.26458276 0 0 0 0,0.37504 0.26458276,0.26458276 0 0 0 0.37503,0 l 0.27221,-0.27422 a 0.26458276,0.26458276 0 0 0 0,-0.37302 0.26458276,0.26458276 0 0 0 -0.18752,-0.0787 z"
            id="path23227" />
         <path
            style="color:#000000;fill:#3a4d5c;fill-opacity:1;stroke-width:0.798112;stroke-linecap:round;stroke-linejoin:round;stroke-miterlimit:10;-inkscape-stroke:none"
            d="m 98.232422,372.39258 -1.390625,1.24804 a 0.26460996,0.26460996 0 0 0 -0.08984,0.19532 v 2.70898 a 0.26460996,0.26460996 0 0 0 0.265625,0.26367 h 1.113281 a 0.26460996,0.26460996 0 0 0 0.263672,-0.26367 v -2.03125 l 1.023438,-0.88867 a 0.26460996,0.26460996 0 0 0 0.01367,-0.38672 l -0.835938,-0.83594 a 0.26460996,0.26460996 0 0 0 -0.363281,-0.01 z"
            id="path1700663" />
         <path id="path20562"
            style="color:#000000;fill:#143441;fill-opacity:1;stroke-width:3.01649;stroke-linecap:round;stroke-linejoin:round;stroke-miterlimit:10;-inkscape-stroke:none"
            d="m 365.67578,361.63867 v 3.00391 a 1.0001006,1.0001006 0 0 0 1.00391,0.99609 h 4.20898 a 1.0001006,1.0001006 0 0 0 0.9961,-0.99609 v -3.00391 z"
            transform="matrix(0.26458334,0,0,0.26458334,0,280.06666)" />
         <path
            style="color:#000000;fill:#ececec;stroke-width:0.798112;stroke-linecap:round;stroke-linejoin:round;stroke-miterlimit:10;-inkscape-stroke:none"
            d="m 94.791016,376.2793 c -0.09332,0 -0.197703,0.0212 -0.28711,0.0801 -0.08941,0.0589 -0.149086,0.14822 -0.183594,0.23438 -0.06901,0.17233 -0.07227,0.34675 -0.07227,0.57617 0,0.22942 0.0033,0.40385 0.07227,0.57617 0.03451,0.0862 0.09419,0.17743 0.183594,0.23633 0.0894,0.0589 0.193791,0.0781 0.28711,0.0781 h 5.566404 c 0.0933,0 0.1977,-0.0192 0.28711,-0.0781 0.0894,-0.0589 0.14909,-0.15016 0.1836,-0.23633 0.069,-0.17233 0.0723,-0.34675 0.0723,-0.57617 0,-0.22942 -0.003,-0.40385 -0.0723,-0.57617 -0.0345,-0.0862 -0.0942,-0.17548 -0.1836,-0.23438 -0.0894,-0.0589 -0.19379,-0.0801 -0.28711,-0.0801 z"
            id="path1700669" />
         <path
            style="color:#000000;fill:#2c5eb5;stroke-width:0.798112;stroke-linecap:round;stroke-linejoin:round;stroke-miterlimit:10;-inkscape-stroke:none"
            d="m 99.228516,378.15627 c -0.146175,5e-4 -0.264246,0.11945 -0.263672,0.26562 v 0.92186 c -5.74e-4,0.14617 0.117497,0.26512 0.263672,0.26562 0.146938,5.8e-4 0.266202,-0.11868 0.265625,-0.26562 v -0.92186 c 5.77e-4,-0.14694 -0.118687,-0.2662 -0.265625,-0.26562 z"
            id="path38265" sodipodi:nodetypes="ccccccc" />
         <path
            style="color:#000000;fill:#2c5eb5;stroke-width:0.798112;stroke-linecap:round;stroke-linejoin:round;stroke-miterlimit:10;-inkscape-stroke:none"
            d="m 98.115234,378.15627 c -0.146175,5e-4 -0.264246,0.11945 -0.263672,0.26562 v 1.4785 c -5.79e-4,0.14618 0.117493,0.26513 0.263672,0.26563 0.146942,5.8e-4 0.266207,-0.11869 0.265625,-0.26563 v -1.4785 c 5.77e-4,-0.14694 -0.118687,-0.2662 -0.265625,-0.26562 z"
            id="path40154" sodipodi:nodetypes="ccccccc" />
         <path
            style="color:#000000;fill:#d0e2ee;stroke-width:0.798112;stroke-linecap:round;stroke-linejoin:round;stroke-miterlimit:10;-inkscape-stroke:none"
            d="m 92.199219,387.22852 a 0.2645835,0.2645835 0 0 0 -0.263672,0.26562 0.2645835,0.2645835 0 0 0 0.263672,0.26367 h 13.636721 a 0.2645835,0.2645835 0 0 0 0.26367,-0.26367 0.2645835,0.2645835 0 0 0 -0.26367,-0.26562 z"
            id="path43574" />
         <path id="path58943"
            style="color:#000000;fill:#66342d;stroke-width:0.798112;stroke-linecap:round;stroke-linejoin:round;stroke-miterlimit:10;-inkscape-stroke:none"
            d="m 102.7168,384.77783 a 0.2645835,0.2645835 0 0 0 -0.26355,0.26562 v 0.8015 c 0.18425,-10e-4 0.35815,-0.003 0.52917,-0.007 v -0.79427 a 0.2645835,0.2645835 0 0 0 -0.26562,-0.26561 z" />
         <path id="path107210"
            style="color:#000000;fill:#143441;fill-opacity:1;stroke-width:0.798112;stroke-linecap:round;stroke-linejoin:round;stroke-miterlimit:10;-inkscape-stroke:none"
            d="m 98.394509,376.54501 v -2.0314 l 1.02371,-0.88883 c 0.115568,-0.10065 0.121738,-0.27812 0.01344,-0.38654 l -0.338714,-0.33872 c -0.392642,0.3796 -0.815338,0.72698 -1.227604,1.08492 v 2.03141 z"
            sodipodi:nodetypes="cccccccc" />
         <path id="path24664"
            style="color:#000000;fill:#cccccc;fill-opacity:1;stroke-width:0.798112;stroke-linecap:round;stroke-linejoin:round;stroke-miterlimit:10;-inkscape-stroke:none"
            d="m 94.791114,376.27939 c -0.09332,0 -0.197913,0.0212 -0.287319,0.0801 -0.08941,0.0589 -0.148944,0.14794 -0.183451,0.2341 -0.02803,0.07 -0.04477,0.14074 -0.0553,0.21497 h 5.562967 c 0.09332,0 0.197919,0.0212 0.287319,0.0801 0.0894,0.0589 0.14895,0.14789 0.18345,0.23409 0.0693,0.17232 0.0724,0.34678 0.0724,0.5762 0,0.13633 -0.002,0.25314 -0.0171,0.36173 h 0.003 c 0.0933,0 0.19791,-0.0191 0.28732,-0.078 0.0894,-0.0589 0.14894,-0.15051 0.18345,-0.23668 0.069,-0.17233 0.0724,-0.34677 0.0724,-0.57619 0,-0.22942 -0.003,-0.40387 -0.0724,-0.57619 -0.0345,-0.0862 -0.094,-0.1752 -0.18345,-0.2341 -0.0894,-0.0589 -0.194,-0.0801 -0.28732,-0.0801 z" />
         <path id="path63986"
            style="color:#000000;fill:#cccccc;fill-opacity:1;stroke-width:3.01649;stroke-linecap:round;stroke-linejoin:round;stroke-miterlimit:10;-inkscape-stroke:none"
            d="m 366.21094,391.34961 c -0.35789,3.82766 -0.75154,7.6468 -1.1543,11.46484 h 1.78906 c 0.0124,-0.11715 0.0247,-0.2344 0.0371,-0.35156 0.18142,-1.71172 0.36204,-3.42423 0.53907,-5.13672 0.008,-0.0807 0.0171,-0.16145 0.0254,-0.24219 0.0108,-0.10475 0.0205,-0.20968 0.0312,-0.31445 0.18583,-1.80586 0.36831,-3.61164 0.54296,-5.41992 z"
            transform="matrix(0.26458334,0,0,0.26458334,0,280.06666)" />
         <path id="path84426"
            style="color:#000000;fill:#349951;fill-opacity:1;stroke-width:0.798112;stroke-linecap:round;stroke-linejoin:round;stroke-miterlimit:10;-inkscape-stroke:none"
            d="m 99.140722,382.58599 c -0.346036,0 -0.644319,0.22135 -0.759646,0.52916 h 6.513814 c 0.44468,0 0.81029,0.36559 0.81029,0.81029 0,0.0847 -0.0131,0.16691 -0.0377,0.24391 0.32726,-0.10438 0.56689,-0.41307 0.56688,-0.77308 0,-0.4447 -0.3656,-0.81028 -0.81028,-0.81028 z" />
      </g>
   </g>
</svg>