<?xml version="1.0" encoding="iso-8859-1"?>
<!DOCTYPE svg PUBLIC "-//W3C//DTD SVG 1.1//EN" "http://www.w3.org/Graphics/SVG/1.1/DTD/svg11.dtd">
<svg version="1.1" id="Capa_1" xmlns="http://www.w3.org/2000/svg" xmlns:xlink="http://www.w3.org/1999/xlink" x="0px"
	fill="#fff" y="0px" width="493.356px" height="493.356px" viewBox="0 0 493.356 493.356"
	style="enable-background:new 0 0 493.356 493.356;" xml:space="preserve">
	<g>
		<path d="M239.278,2.858l-99.929,109.632c-2.474,3.046-2.95,6.376-1.427,9.993c1.525,3.613,4.283,5.427,8.282,5.427h63.954v356.313
		c0,2.666,0.855,4.856,2.568,6.567c1.714,1.711,3.905,2.568,6.567,2.568h54.816c2.663,0,4.853-0.854,6.563-2.568
		c1.712-1.714,2.567-3.905,2.567-6.567V127.81h63.953c3.812,0,6.57-1.817,8.278-5.428c1.529-3.62,0.951-6.95-1.708-9.996
		l-101.077-109.632c-1.902-1.903-4.182-2.852-6.849-2.852C243.367,0.006,241.181,0.961,239.278,2.858z" />
	</g>
	<g>
	</g>
	<g>
	</g>
	<g>
	</g>
	<g>
	</g>
	<g>
	</g>
	<g>
	</g>
	<g>
	</g>
	<g>
	</g>
	<g>
	</g>
	<g>
	</g>
	<g>
	</g>
	<g>
	</g>
	<g>
	</g>
	<g>
	</g>
	<g>
	</g>
</svg>